<?xml version="1.0" encoding="UTF-8" standalone="no"?>
<!-- Created with Inkscape (http://www.inkscape.org/) -->

<svg
   xmlns:dc="http://purl.org/dc/elements/1.1/"
   xmlns:cc="http://creativecommons.org/ns#"
   xmlns:rdf="http://www.w3.org/1999/02/22-rdf-syntax-ns#"
   xmlns:svg="http://www.w3.org/2000/svg"
   xmlns="http://www.w3.org/2000/svg"
   xmlns:sodipodi="http://sodipodi.sourceforge.net/DTD/sodipodi-0.dtd"
   xmlns:inkscape="http://www.inkscape.org/namespaces/inkscape"
   width="167.67581"
   height="145.27737"
   id="svg2"
   version="1.1"
   inkscape:version="0.48.4 r9939"
   sodipodi:docname="filmrolle.svg">
  <defs
     id="defs4" />
  <sodipodi:namedview
     id="base"
     pagecolor="#ffffff"
     bordercolor="#666666"
     borderopacity="1.0"
     inkscape:pageopacity="0.0"
     inkscape:pageshadow="2"
     inkscape:zoom="1.0165493"
     inkscape:cx="115.32356"
     inkscape:cy="15.905757"
     inkscape:document-units="px"
     inkscape:current-layer="layer1"
     showgrid="false"
     inkscape:window-width="1362"
     inkscape:window-height="729"
     inkscape:window-x="0"
     inkscape:window-y="18"
     inkscape:window-maximized="0"
     fit-margin-top="0"
     fit-margin-left="0"
     fit-margin-right="0"
     fit-margin-bottom="0" />
  <metadata
     id="metadata7">
    <rdf:RDF>
      <cc:Work
         rdf:about="">
        <dc:format>image/svg+xml</dc:format>
        <dc:type
           rdf:resource="http://purl.org/dc/dcmitype/StillImage" />
        <dc:title />
      </cc:Work>
    </rdf:RDF>
  </metadata>
  <g
     inkscape:label="Ebene 1"
     inkscape:groupmode="layer"
     id="layer1"
     transform="translate(-95.574188,-308.1538)">
    <path
       sodipodi:type="arc"
       style="fill:#000000;fill-opacity:1;fill-rule:evenodd;stroke:#000000;stroke-width:1px;stroke-linecap:butt;stroke-linejoin:miter;stroke-opacity:1"
       id="path2985"
       sodipodi:cx="135.73512"
       sodipodi:cy="352.94101"
       sodipodi:rx="39.712898"
       sodipodi:ry="36.749249"
       d="m 175.44802,352.94101 a 39.712898,36.749249 0 1 1 -79.425796,0 39.712898,36.749249 0 1 1 79.425796,0 z"
       transform="matrix(1.8045072,0,0,1.9500319,-76.81264,-307.4469)" />
    <path
       sodipodi:type="arc"
       style="fill:#ffffff;fill-opacity:1;fill-rule:evenodd;stroke:#ffffff;stroke-width:1px;stroke-linecap:butt;stroke-linejoin:miter;stroke-opacity:1"
       id="path3755"
       sodipodi:cx="135.73512"
       sodipodi:cy="360.05377"
       sodipodi:rx="13.632786"
       sodipodi:ry="13.040055"
       d="m 149.36791,360.05377 a 13.632786,13.040055 0 1 1 -27.26557,0 13.632786,13.040055 0 1 1 27.26557,0 z"
       transform="matrix(0.91365352,0,0,0.91365352,6.1727861,31.873347)" />
    <path
       sodipodi:type="arc"
       style="fill:#ffffff;fill-opacity:1;fill-rule:evenodd;stroke:#ffffff;stroke-width:1px;stroke-linecap:butt;stroke-linejoin:miter;stroke-opacity:1"
       id="path3755-9"
       sodipodi:cx="135.73512"
       sodipodi:cy="360.05377"
       sodipodi:rx="13.632786"
       sodipodi:ry="13.040055"
       d="m 149.36791,360.05377 a 13.632786,13.040055 0 1 1 -27.26557,0 13.632786,13.040055 0 1 1 27.26557,0 z"
       transform="matrix(0.91365352,0,0,0.91365352,44.107501,8.5656513)" />
    <path
       sodipodi:type="arc"
       style="fill:#ffffff;fill-opacity:1;fill-rule:evenodd;stroke:#ffffff;stroke-width:1px;stroke-linecap:butt;stroke-linejoin:miter;stroke-opacity:1"
       id="path3755-90"
       sodipodi:cx="135.73512"
       sodipodi:cy="360.05377"
       sodipodi:rx="13.632786"
       sodipodi:ry="13.040055"
       d="m 149.36791,360.05377 a 13.632786,13.040055 0 1 1 -27.26557,0 13.632786,13.040055 0 1 1 27.26557,0 z"
       transform="matrix(0.91365352,0,0,0.91365352,82.042201,31.873347)" />
    <path
       style="color:#000000;fill:#000000;fill-opacity:1;fill-rule:nonzero;stroke:#000000;stroke-width:19.07600021;stroke-linecap:butt;stroke-linejoin:miter;stroke-miterlimit:4;stroke-opacity:1;stroke-dasharray:none;stroke-dashoffset:0;marker:none;visibility:visible;display:inline;overflow:visible;enable-background:accumulate"
       d="m 240.63845,442.10829 c -4.46691,0.57561 -8.94752,1.10336 -13.44241,1.41647 -11.24313,0.65529 -22.46052,0.3359 -33.65104,-0.79961 l -1.11146,-2.02788 c 12.02062,1.3741 24.08422,1.74986 36.16297,1.02645 4.50182,-0.32207 8.96818,-0.88972 13.43979,-1.4863 l -1.39785,1.87087 z"
       id="path3953-0"
       inkscape:connector-curvature="0" />
    <g
       id="g3903"
       transform="translate(-1.3983564,0)">
      <path
         transform="matrix(0.91365352,0,0,-0.91365352,7.5711438,728.33909)"
         d="m 149.36791,360.05377 c 0,7.20183 -6.10361,13.04006 -13.63279,13.04006 -7.52918,0 -13.63278,-5.83823 -13.63278,-13.04006 0,-7.20182 6.1036,-13.04005 13.63278,-13.04005 7.52918,0 13.63279,5.83823 13.63279,13.04005 z"
         sodipodi:ry="13.040055"
         sodipodi:rx="13.632786"
         sodipodi:cy="360.05377"
         sodipodi:cx="135.73512"
         id="path3755-8"
         style="fill:#ffffff;fill-opacity:1;fill-rule:evenodd;stroke:#ffffff;stroke-width:1px;stroke-linecap:butt;stroke-linejoin:miter;stroke-opacity:1"
         sodipodi:type="arc" />
      <path
         transform="matrix(0.91365352,0,0,-0.91365352,45.505856,751.64679)"
         d="m 149.36791,360.05377 c 0,7.20183 -6.10361,13.04006 -13.63279,13.04006 -7.52918,0 -13.63278,-5.83823 -13.63278,-13.04006 0,-7.20182 6.1036,-13.04005 13.63278,-13.04005 7.52918,0 13.63279,5.83823 13.63279,13.04005 z"
         sodipodi:ry="13.040055"
         sodipodi:rx="13.632786"
         sodipodi:cy="360.05377"
         sodipodi:cx="135.73512"
         id="path3755-9-9"
         style="fill:#ffffff;fill-opacity:1;fill-rule:evenodd;stroke:#ffffff;stroke-width:1px;stroke-linecap:butt;stroke-linejoin:miter;stroke-opacity:1"
         sodipodi:type="arc" />
      <path
         transform="matrix(0.91365352,0,0,-0.91365352,83.440556,728.33909)"
         d="m 149.36791,360.05377 c 0,7.20183 -6.10361,13.04006 -13.63279,13.04006 -7.52918,0 -13.63278,-5.83823 -13.63278,-13.04006 0,-7.20182 6.1036,-13.04005 13.63278,-13.04005 7.52918,0 13.63279,5.83823 13.63279,13.04005 z"
         sodipodi:ry="13.040055"
         sodipodi:rx="13.632786"
         sodipodi:cy="360.05377"
         sodipodi:cx="135.73512"
         id="path3755-90-5"
         style="fill:#ffffff;fill-opacity:1;fill-rule:evenodd;stroke:#ffffff;stroke-width:1px;stroke-linecap:butt;stroke-linejoin:miter;stroke-opacity:1"
         sodipodi:type="arc" />
    </g>
    <path
       sodipodi:type="arc"
       style="fill:#ffffff;fill-opacity:1;fill-rule:evenodd;stroke:#ffffff;stroke-width:1px;stroke-linecap:butt;stroke-linejoin:miter;stroke-opacity:1"
       id="path3755-9-1"
       sodipodi:cx="135.73512"
       sodipodi:cy="360.05377"
       sodipodi:rx="13.632786"
       sodipodi:ry="13.040055"
       d="m 149.36791,360.05377 a 13.632786,13.040055 0 1 1 -27.26557,0 13.632786,13.040055 0 1 1 27.26557,0 z"
       transform="matrix(0.64674865,0,0,0.64674865,80.335859,147.93504)" />
  </g>
</svg>
